<svg className="mx-1 icon" width="40" height="39" viewBox="0 0 40 39" fill="none" xmlns="http://www.w3.org/2000/svg">
  <circle cx="20.0004" cy="19.0843" r="18.6867" fill="#0A0126" stroke="white" stroke-width="0.795181"></circle>
  <path
    d="M29.3093 13.6688C28.6453 13.963 27.932 14.1618 27.1822 14.2517C27.9559 13.7887 28.5347 13.0601 28.8107 12.2017C28.0838 12.6335 27.2882 12.9374 26.4586 13.1002C25.9006 12.5045 25.1617 12.1097 24.3564 11.977C23.551 11.8444 22.7245 11.9813 22.0049 12.3665C21.2854 12.7517 20.7132 13.3637 20.3771 14.1075C20.0411 14.8513 19.96 15.6852 20.1464 16.4798C18.6735 16.4058 17.2326 16.023 15.9172 15.3561C14.6018 14.6892 13.4413 13.7532 12.5111 12.6088C12.193 13.1575 12.0101 13.7936 12.0101 14.4711C12.0098 15.081 12.16 15.6816 12.4474 16.2195C12.7348 16.7575 13.1505 17.2161 13.6577 17.5548C13.0695 17.5361 12.4943 17.3772 11.9799 17.0913V17.139C11.9798 17.9944 12.2757 18.8235 12.8174 19.4855C13.359 20.1476 14.113 20.6019 14.9515 20.7714C14.4058 20.919 13.8337 20.9408 13.2784 20.835C13.515 21.571 13.9758 22.2146 14.5963 22.6757C15.2169 23.1369 15.9661 23.3924 16.7391 23.4066C15.4269 24.4367 13.8063 24.9954 12.1381 24.993C11.8426 24.993 11.5474 24.9758 11.2539 24.9413C12.9472 26.03 14.9184 26.6078 16.9315 26.6056C23.7462 26.6056 27.4716 20.9614 27.4716 16.0663C27.4716 15.9072 27.4676 15.7466 27.4605 15.5876C28.1851 15.0635 28.8106 14.4146 29.3077 13.6712L29.3093 13.6688Z"
    fill="white"></path>
</svg>