<svg className="mx-1 icon" width="39" height="39" viewBox="0 0 39 39" fill="none" xmlns="http://www.w3.org/2000/svg">
  <circle cx="19.0843" cy="19.0843" r="18.6867" fill="#0A0126" stroke="white" stroke-width="0.795181"></circle>
  <path
    d="M25.699 13.1149C24.4824 12.5662 23.1783 12.1607 21.8146 11.9301C21.8024 11.9277 21.7899 11.9293 21.7786 11.9344C21.7674 11.9395 21.758 11.948 21.7518 11.9587C21.5848 12.2521 21.3987 12.6346 21.2683 12.9368C19.8219 12.7207 18.3515 12.7207 16.9051 12.9368C16.7599 12.6019 16.5961 12.2754 16.4145 11.9587C16.4084 11.9479 16.399 11.9392 16.3878 11.9338C16.3766 11.9284 16.364 11.9265 16.3517 11.9285C14.9887 12.1591 13.6847 12.5646 12.4672 13.1141C12.4568 13.1185 12.4479 13.126 12.4418 13.1356C9.96718 16.7735 9.28889 20.3216 9.62207 23.8252C9.623 23.8338 9.62566 23.8421 9.6299 23.8496C9.63414 23.8571 9.63986 23.8637 9.64672 23.8689C11.0911 24.9205 12.7021 25.7216 14.4122 26.2386C14.4242 26.2422 14.4369 26.2422 14.4488 26.2385C14.4607 26.2348 14.4713 26.2276 14.479 26.2179C14.847 25.7257 15.1731 25.2036 15.4539 24.6569C15.4578 24.6495 15.4601 24.6412 15.4605 24.6328C15.461 24.6244 15.4596 24.616 15.4565 24.6082C15.4534 24.6003 15.4487 24.5932 15.4426 24.5874C15.4365 24.5815 15.4293 24.5771 15.4213 24.5742C14.9076 24.3808 14.4099 24.1474 13.9327 23.8761C13.9242 23.8712 13.9169 23.8642 13.9117 23.8559C13.9065 23.8475 13.9034 23.8379 13.9028 23.8281C13.9022 23.8182 13.904 23.8084 13.9081 23.7994C13.9122 23.7904 13.9185 23.7826 13.9264 23.7767C14.0266 23.7027 14.1268 23.6256 14.2222 23.5485C14.2308 23.5415 14.2411 23.5371 14.2521 23.5357C14.263 23.5343 14.2742 23.536 14.2842 23.5405C17.4069 24.9432 20.7888 24.9432 23.8749 23.5405C23.885 23.5357 23.8962 23.5338 23.9073 23.5351C23.9184 23.5363 23.929 23.5407 23.9377 23.5477C24.0331 23.6256 24.1325 23.7027 24.2335 23.7767C24.2415 23.7825 24.2479 23.7902 24.2521 23.7991C24.2564 23.808 24.2583 23.8178 24.2579 23.8277C24.2574 23.8375 24.2545 23.8471 24.2494 23.8555C24.2443 23.864 24.2372 23.871 24.2287 23.8761C23.7532 24.1496 23.2586 24.381 22.7394 24.5735C22.7314 24.5763 22.7241 24.5809 22.7181 24.5868C22.712 24.5928 22.7073 24.5999 22.7042 24.6078C22.7011 24.6157 22.6997 24.6242 22.7002 24.6327C22.7006 24.6411 22.7029 24.6494 22.7068 24.6569C22.993 25.2032 23.3207 25.7233 23.6809 26.2171C23.6884 26.2272 23.6988 26.2348 23.7107 26.2388C23.7227 26.2428 23.7356 26.243 23.7477 26.2394C25.4608 25.7238 27.0744 24.9224 28.5203 23.8689C28.5274 23.864 28.5333 23.8576 28.5377 23.8502C28.5421 23.8428 28.5448 23.8345 28.5458 23.826C28.9434 19.7753 27.8794 16.2559 25.7237 13.1372C25.7184 13.127 25.7097 13.1191 25.699 13.1149ZM15.9207 21.6917C14.9808 21.6917 14.2055 20.8417 14.2055 19.7992C14.2055 18.7559 14.9657 17.9067 15.9207 17.9067C16.8829 17.9067 17.651 18.7631 17.6359 19.7992C17.6359 20.8425 16.8757 21.6917 15.9207 21.6917ZM22.2623 21.6917C21.3216 21.6917 20.5471 20.8417 20.5471 19.7992C20.5471 18.7559 21.3065 17.9067 22.2623 17.9067C23.2244 17.9067 23.9926 18.7631 23.9775 19.7992C23.9775 20.8425 23.2252 21.6917 22.2623 21.6917Z"
    fill="white"></path>
</svg>